<?xml version="1.0" standalone="no"?>
<!DOCTYPE svg PUBLIC "-//W3C//DTD SVG 20010904//EN"
 "http://www.w3.org/TR/2001/REC-SVG-20010904/DTD/svg10.dtd">
<svg version="1.0" xmlns="http://www.w3.org/2000/svg"
 width="1125.000000pt" height="430.000000pt" viewBox="0 0 1125.000000 430.000000"
 preserveAspectRatio="xMidYMid meet">

<g transform="translate(0.000000,430.000000) scale(0.100000,-0.100000)"
fill="#000000" stroke="none">
<path d="M4776 4289 c-308 -21 -595 -66 -896 -140 -751 -185 -1460 -535 -2115
-1044 -344 -267 -704 -619 -1018 -992 -114 -135 -308 -397 -422 -568 l-100
-150 -8 75 c-13 120 -2 597 17 750 10 74 39 245 66 380 53 261 74 433 62 490
-9 41 -46 60 -89 44 -103 -36 -187 -341 -233 -844 -16 -182 -40 -602 -40 -708
1 -295 59 -494 161 -551 83 -47 206 -8 475 149 210 123 973 522 1094 572 141
59 227 106 260 145 25 28 30 42 30 83 0 42 -4 52 -26 67 -23 15 -33 15 -83 5
-73 -15 -133 -45 -802 -394 -682 -357 -673 -353 -663 -336 4 7 39 60 77 118
671 1009 1598 1805 2602 2233 918 391 1908 501 2880 322 688 -127 1378 -417
1960 -824 100 -70 135 -100 135 -115 0 -12 -11 -147 -25 -301 -13 -154 -31
-391 -40 -526 -15 -222 -15 -249 -1 -283 29 -69 112 -83 149 -24 10 15 35 187
72 498 31 261 57 479 59 484 2 8 85 -59 244 -198 l93 -81 -5 -85 c-3 -47 -17
-166 -31 -265 -51 -359 -76 -696 -61 -817 8 -66 37 -114 84 -141 41 -24 76
-16 90 20 8 21 93 1032 92 1102 0 21 26 -5 156 -155 l113 -131 11 -169 c5 -93
10 -428 10 -745 l0 -576 23 -34 c28 -42 60 -59 112 -59 50 0 81 21 90 59 7 34
-12 1180 -21 1229 -4 17 -2 32 2 32 14 0 126 -156 173 -240 99 -174 120 -306
103 -653 -7 -133 -12 -396 -12 -583 0 -329 1 -342 21 -367 25 -33 85 -52 133
-43 68 13 66 -1 67 511 1 253 4 507 8 565 l6 105 27 -47 c52 -87 110 -110 170
-67 44 32 61 79 47 132 -12 47 -34 85 -97 172 -24 33 -39 61 -33 63 6 2 143
-26 305 -63 590 -132 851 -168 940 -131 46 19 76 61 76 105 0 59 -14 68 -133
91 -60 12 -200 43 -310 70 -111 27 -265 60 -342 75 -204 37 -521 103 -585 121
-134 39 -209 100 -352 287 l-91 120 164 -7 c90 -4 328 -12 529 -17 201 -5 412
-13 470 -18 169 -14 262 9 284 71 15 43 -11 80 -69 100 -112 37 -423 58 -870
58 -148 0 -364 5 -480 10 l-210 10 -30 34 c-16 19 -72 80 -124 135 l-93 101
198 -5 c110 -3 294 -11 409 -18 399 -23 477 -15 505 54 15 36 5 96 -19 108
-10 6 -303 18 -652 27 l-634 18 -90 80 c-49 45 -112 100 -140 124 l-50 43 150
-8 c221 -12 510 -9 580 6 112 24 169 67 169 126 0 47 -35 82 -103 102 -71 20
-247 14 -486 -18 -203 -26 -435 -31 -510 -10 -70 20 -98 35 -385 206 -474 283
-726 414 -1004 524 -668 263 -1466 388 -2170 340z"/>
</g>
</svg>
